<svg width="145" height="163" viewBox="0 0 145 163" fill="none" xmlns="http://www.w3.org/2000/svg">
<g id="add-user">
<path id="Path 13408" d="M44.903 42.9196C44.903 26.7005 55.4875 12.956 70.1253 8.20947C66.5778 7.05942 62.7934 6.43506 58.8625 6.43506C38.7124 6.43506 22.3775 22.7697 22.3775 42.9196C22.3775 63.0695 38.7124 79.4041 58.8625 79.4041C62.7934 79.4041 66.5778 78.7798 70.1253 77.6297C55.4875 72.8832 44.903 59.1387 44.903 42.9196Z" fill="#CEE1F2"/>
<path id="Path 13409" d="M6.75587 162.525C3.2514 162.525 0.410645 159.685 0.410645 156.18C0.410645 124.342 26.3134 98.4395 58.1522 98.4395H67.67C74.1856 98.4395 80.5835 99.5181 86.6857 101.645C89.9948 102.799 91.7422 106.417 90.5884 109.726C89.4348 113.035 85.8167 114.782 82.508 113.628C77.752 111.97 72.7599 111.13 67.67 111.13H58.1522C33.311 111.13 13.1011 131.339 13.1011 156.18C13.1011 159.685 10.2603 162.525 6.75587 162.525ZM105.107 42.9195C105.107 19.3032 85.8932 0.0898438 62.2766 0.0898438C38.66 0.0898438 19.4463 19.3032 19.4463 42.9195C19.4463 66.5358 38.66 85.7492 62.2766 85.7492C85.8932 85.7492 105.107 66.5358 105.107 42.9195ZM92.4164 42.9195C92.4164 59.5384 78.8957 73.0589 62.2766 73.0589C45.6575 73.0589 32.1367 59.5384 32.1367 42.9195C32.1367 26.3007 45.6575 12.7801 62.2766 12.7801C78.8957 12.7801 92.4164 26.3007 92.4164 42.9195Z" fill="#1DC1DD"/>
<path id="Path 13410" d="M137.785 124.454H118.749V105.419C118.749 101.915 115.908 99.074 112.404 99.074C108.9 99.074 106.059 101.915 106.059 105.419V124.454H87.023C83.5186 124.454 80.6778 127.295 80.6778 130.8C80.6778 134.304 83.5186 137.145 87.023 137.145H106.059V156.18C106.059 159.685 108.9 162.525 112.404 162.525C115.908 162.525 118.749 159.685 118.749 156.18V137.145H137.785C141.289 137.145 144.13 134.304 144.13 130.8C144.13 127.295 141.289 124.454 137.785 124.454Z" fill="#707070"/>
</g>
</svg>
