<svg width="120" height="109" viewBox="0 0 120 109" fill="none" xmlns="http://www.w3.org/2000/svg">
<g id="bump">
<path id="Path 13401" d="M97.8416 3.26991C98.0072 2.35588 97.5368 1.4446 96.6951 1.05119C95.8535 0.657789 94.8524 0.881029 94.2578 1.59462L80.72 17.8396L73.5274 6.41615C73.0572 5.66962 72.1616 5.30863 71.3053 5.52052C70.4489 5.73242 69.825 6.46943 69.7572 7.349L68.2233 27.2904C68.1367 28.4166 68.9794 29.3999 70.1057 29.4865C71.232 29.5731 72.2152 28.7304 72.3018 27.6041L73.3614 13.8299L78.7583 22.4012C79.1071 22.9552 79.7001 23.3088 80.3534 23.3522C81.0067 23.3957 81.6412 23.1238 82.0604 22.6208L92.427 10.1811L89.726 25.0361C89.5977 25.7419 89.8484 26.4633 90.3869 26.9372C90.9253 27.4112 91.6728 27.5685 92.3566 27.3517L105.885 23.0623L96.8905 32.6989C96.4507 33.1705 96.2585 33.822 96.373 34.4569C96.4866 35.0916 96.8935 35.6353 97.4714 35.9238L106.163 40.2694L93.9587 42.3033C92.8446 42.4891 92.0918 43.5429 92.2775 44.657C92.4632 45.7713 93.517 46.524 94.6312 46.3382L113.039 43.2703C113.913 43.1247 114.594 42.4331 114.726 41.557C114.858 40.681 114.41 39.8198 113.617 39.4236L101.748 33.4891L114.198 20.1504C114.832 19.4707 114.928 18.4486 114.432 17.6625C113.935 16.8764 112.971 16.5242 112.085 16.8053L94.3584 22.4257L97.8416 3.26991Z" fill="#707070"/>
<path id="Path 13402" d="M25.0015 33.3751C25.4302 33.1578 25.8748 33.0718 26.2839 33.0718H67.199C67.6082 33.0718 68.0527 33.1578 68.4814 33.3751C70.7523 34.5266 74.4258 37.6989 76.234 43.1674C76.5885 44.2399 76.0065 45.3968 74.9341 45.7513C73.8616 46.106 72.7047 45.524 72.3501 44.4515C70.9873 40.33 68.3361 38.0007 66.8868 37.1623H26.5961C24.8237 38.1866 21.3051 41.4059 20.4573 47.3552C20.3864 47.8529 20.1419 48.2831 19.7936 48.5933C21.6215 50.4572 23.7888 51.2446 24.9583 51.4229H41.841C42.9706 51.4229 43.8863 52.3386 43.8863 53.4682C43.8863 54.5978 42.9706 55.5134 41.841 55.5134H24.6903L24.5636 55.4976C21.9414 55.1689 16.7091 53.0917 14.0778 47.4048H6.5129C5.29624 47.4048 4.3012 48.395 4.3012 49.6273V49.8068C4.3012 50.9079 5.10184 51.8377 6.17736 52.0035L12.2682 52.9429C14.4068 53.2727 15.4338 55.7388 14.1856 57.4908L12.0015 60.5561C11.4235 61.3674 11.1124 62.3401 11.1124 63.3382V73.5263C11.1124 76.1728 13.251 78.3093 15.8783 78.3093H30.5918C31.7214 78.3093 32.6371 79.2251 32.6371 80.3546C32.6371 81.4842 31.7214 82.3999 30.5918 82.3999H15.8783C14.9595 82.3999 14.0737 82.2599 13.2409 81.9999V85.9026C13.2409 86.6636 13.8548 87.2715 14.6012 87.2715H25.6693C26.4157 87.2715 27.0297 86.6055 27.0297 85.4758C27.0297 84.3462 27.9453 83.4306 29.075 83.4306C30.2046 83.4306 31.1203 84.3462 31.1203 85.4758C31.1203 88.9187 28.6847 91.362 25.6693 91.362H14.6012C11.5858 91.362 9.15023 88.9129 9.15023 85.9026L9.15933 79.3076C7.8266 77.754 7.02177 75.7335 7.02177 73.5264V63.3382C7.02177 61.49 7.59773 59.6874 8.66999 58.1826L9.73284 56.6908L5.55375 56.0462C2.47592 55.5715 0.210571 52.9186 0.210571 49.8068V49.6273C0.210571 46.1456 3.02734 43.3143 6.5129 43.3143H14.8502C15.6784 43.3143 16.4124 43.6603 16.9375 44.2009C18.6008 38.0875 22.6056 34.59 25.0015 33.3751Z" fill="#1DC1DD"/>
<path id="Path 13403" d="M14.0862 59.628C14.9268 58.8735 16.2199 58.9431 16.9746 59.7837L20.1963 63.3724H23.5359C24.6656 63.3724 25.5813 64.2882 25.5813 65.4177C25.5813 66.5473 24.6656 67.4629 23.5359 67.4629H19.663C18.84 67.4629 18.057 67.1127 17.5082 66.5015L13.9305 62.5164C13.176 61.6758 13.2456 60.3826 14.0862 59.628Z" fill="#707070"/>
<path id="Path 13404" d="M40.6753 77.0128C41.5159 76.2583 42.8091 76.3279 43.5637 77.1685L46.7854 80.7572H55.2383C56.3679 80.7572 57.2836 81.673 57.2836 82.8025C57.2836 83.932 56.3679 84.8477 55.2383 84.8477H46.2522C45.4291 84.8477 44.646 84.4975 44.0973 83.8862L40.5197 79.9012C39.7651 79.0606 39.8347 77.7674 40.6753 77.0128Z" fill="#707070"/>
<path id="Path 13405" d="M105.986 77.0128C106.827 77.7674 106.896 79.0606 106.141 79.9012L102.564 83.8862C102.015 84.4975 101.232 84.8477 100.409 84.8477H91.4227C90.2931 84.8477 89.3774 83.932 89.3774 82.8025C89.3774 81.673 90.2931 80.7572 91.4227 80.7572H99.8755L103.097 77.1685C103.852 76.3279 105.145 76.2583 105.986 77.0128Z" fill="#707070"/>
<path id="Path 13406" d="M54.0444 90.4843C54.0444 89.3548 54.9601 88.439 56.0898 88.439H90.5714C91.7009 88.439 92.6167 89.3548 92.6167 90.4843C92.6167 91.6135 91.7009 92.5297 90.5714 92.5297H56.0898C54.9601 92.5297 54.0444 91.6135 54.0444 90.4843Z" fill="#1DC1DD"/>
<path id="Path 13407" fill-rule="evenodd" clip-rule="evenodd" d="M51.5906 50.7599C52.0193 50.5425 52.4639 50.4565 52.873 50.4565H93.7881C94.1973 50.4565 94.6418 50.5425 95.0705 50.7599C97.4663 51.9747 101.471 55.4723 103.135 61.5857C103.659 61.045 104.394 60.6991 105.222 60.6991H113.559C117.045 60.6991 119.861 63.5303 119.861 67.012V67.1916C119.861 70.3034 117.596 72.9563 114.518 73.431L110.34 74.0756L111.402 75.5674C112.474 77.0722 113.051 78.8748 113.051 80.723V90.9111C113.051 93.1178 112.246 95.1385 110.913 96.6918L110.921 103.288C110.921 106.298 108.486 108.747 105.471 108.747H94.4027C91.3873 108.747 88.9517 106.19 88.9517 102.86C88.9517 101.731 89.8674 100.815 90.9971 100.815C92.1267 100.815 93.0424 101.731 93.0424 102.86C93.0424 103.99 93.6563 104.656 94.4027 104.656H105.471C106.217 104.656 106.831 104.049 106.831 103.288V99.3845C105.998 99.6442 105.113 99.7843 104.193 99.7843H42.4674C41.5487 99.7843 40.6628 99.6442 39.83 99.3845V103.288C39.83 104.049 40.4439 104.656 41.1903 104.656H52.2584C53.0049 104.656 53.6188 103.99 53.6188 102.86C53.6188 101.731 54.5344 100.815 55.6641 100.815C56.7937 100.815 57.7094 101.731 57.7094 102.86C57.7094 106.701 55.2738 108.747 52.2584 108.747H41.1903C38.1749 108.747 35.7393 106.298 35.7393 103.288L35.7485 96.6918C34.4157 95.1385 33.6109 93.1178 33.6109 90.9111V80.723C33.6109 78.8748 34.1869 77.0722 35.2591 75.5674L36.3219 74.0755L32.1429 73.431C29.0651 72.9563 26.7997 70.3034 26.7997 67.1916V67.012C26.7997 63.5303 29.6165 60.6991 33.102 60.6991H41.4393C42.2674 60.6991 43.0015 61.045 43.5266 61.5857C45.1899 55.4722 49.1946 51.9747 51.5906 50.7599ZM46.3827 65.978C48.2106 67.842 50.3779 68.6294 51.5473 68.8077H95.1138C96.2831 68.6294 98.4501 67.842 100.279 65.978C99.9298 65.6679 99.6854 65.2376 99.6149 64.7399C98.7671 58.7906 95.2483 55.5714 93.476 54.5471H53.1851C51.4127 55.5714 47.8942 58.7906 47.0464 64.7399C46.9755 65.2376 46.7309 65.6679 46.3827 65.978ZM33.102 64.7896C31.8853 64.7896 30.8903 65.7797 30.8903 67.012V67.1916C30.8903 68.2927 31.6909 69.2224 32.7665 69.3883L38.8573 70.3277C40.9959 70.6575 42.0229 73.1236 40.7747 74.8756L38.5906 77.9409C38.0126 78.7522 37.7015 79.7249 37.7015 80.723V90.9111C37.7015 93.5575 39.8401 95.6938 42.4674 95.6938H104.193C106.821 95.6938 108.96 93.5575 108.96 90.9111V80.723C108.96 79.7249 108.648 78.7522 108.07 77.9409L105.887 74.8756C104.638 73.1236 105.665 70.6575 107.803 70.3277L113.894 69.3883C114.97 69.2224 115.771 68.2927 115.771 67.1916V67.012C115.771 65.7797 114.776 64.7896 113.559 64.7896H105.994C103.363 70.4765 98.131 72.5537 95.5079 72.8824L95.3821 72.8982H51.2794L51.1527 72.8824C48.5305 72.5537 43.2982 70.4765 40.6669 64.7896L33.102 64.7896Z" fill="#1DC1DD"/>
</g>
</svg>
