<svg width="161" height="161" viewBox="0 0 161 161" fill="none" xmlns="http://www.w3.org/2000/svg">
<g id="call">
<path id="Path 13411" d="M60.9205 129.186C30.7807 101.268 10 57.0105 39.0295 27.9815C40.9064 26.1046 42.7662 24.5764 44.7579 22.9054C47.4607 20.638 50.6628 19.3242 53.9407 18.9428L48.9677 13.9613C42.6063 7.58918 32.458 7.19483 25.5611 12.981C23.5693 14.6519 24.8669 12.9924 23.0052 14.8845C-8.70726 47.1146 6.11297 91.6242 38.2246 123.455C59.5915 144.635 86.48 157.866 111.458 154.743C94.1295 151.388 76.7347 143.835 60.9205 129.186Z" fill="#CEE1F2"/>
<path id="Path 13412" d="M139.018 97.6373C130.493 89.098 116.035 92.064 111.537 103.269C109.312 108.81 107.228 112.497 106.405 113.322C90.1603 129.594 71.5469 113.945 59.3241 101.701C47.198 89.5539 31.3518 70.3383 47.0448 54.6185C47.9138 53.748 51.7346 51.5351 57.4614 49.1995C68.5792 44.6649 71.4581 30.2186 62.9697 21.7161L52.1965 10.5211C45.8351 4.14899 35.6868 3.75464 28.7899 9.54077C26.7981 11.2118 24.8673 12.9932 23.0056 14.8853C-8.70689 47.1154 6.11333 91.6249 38.2249 123.456C70.1373 155.089 114.366 168.998 146.151 137.159C147.903 135.405 149.558 133.59 151.116 131.722C156.863 124.833 156.418 114.691 150.081 108.343L139.018 97.6373Z" stroke="#1DC1DD" stroke-width="10" stroke-linecap="round" stroke-linejoin="round"/>
<path id="Path 13413" d="M129.766 5.4563V56.2174M104.385 30.8368H155.147" stroke="#707070" stroke-width="10" stroke-linecap="round" stroke-linejoin="round"/>
</g>
</svg>
