<svg width="96" height="63" viewBox="0 0 96 63" fill="none" xmlns="http://www.w3.org/2000/svg">
<g id="coupon">
<g id="Group 4931">
<g id="Group 4930">
<rect id="Rectangle 7339" x="29.4653" y="40.8975" width="3.00162" height="3.00162" fill="#1DC1DD"/>
</g>
</g>
<g id="Group 4933">
<g id="Group 4932">
<rect id="Rectangle 7340" x="29.4653" y="47.1738" width="3.00162" height="3.2745" fill="#1DC1DD"/>
</g>
</g>
<g id="Group 4935">
<g id="Group 4934">
<rect id="Rectangle 7341" x="29.4653" y="53.4492" width="3.00162" height="3.2745" fill="#1DC1DD"/>
</g>
</g>
<g id="Group 4937">
<g id="Group 4936">
<rect id="Rectangle 7342" x="29.4653" y="34.6216" width="3.00162" height="3.00162" fill="#1DC1DD"/>
</g>
</g>
<g id="Group 4939">
<g id="Group 4938">
<rect id="Rectangle 7343" x="29.4653" y="28.3452" width="3.00162" height="3.00162" fill="#1DC1DD"/>
</g>
</g>
<g id="Group 4941">
<g id="Group 4940">
<rect id="Rectangle 7344" x="29.4653" y="21.7959" width="3.00162" height="3.2745" fill="#1DC1DD"/>
</g>
</g>
<g id="Group 4943">
<g id="Group 4942">
<rect id="Rectangle 7345" x="29.4653" y="15.5205" width="3.00162" height="3.2745" fill="#1DC1DD"/>
</g>
</g>
<g id="Group 4945">
<g id="Group 4944">
<rect id="Rectangle 7346" x="7.3623" y="15.5205" width="3.00162" height="3.2745" fill="#1DC1DD"/>
</g>
</g>
<g id="Group 4947">
<g id="Group 4946">
<rect id="Rectangle 7347" x="86.2231" y="15.5205" width="3.2745" height="3.2745" fill="#1DC1DD"/>
</g>
</g>
<g id="Group 4949">
<g id="Group 4948">
<rect id="Rectangle 7348" x="86.2231" y="53.4492" width="3.2745" height="3.2745" fill="#1DC1DD"/>
</g>
</g>
<g id="Group 4951">
<g id="Group 4950">
<rect id="Rectangle 7349" x="7.3623" y="53.4492" width="3.00162" height="3.2745" fill="#1DC1DD"/>
</g>
</g>
<g id="Group 4953">
<g id="Group 4952">
<path id="Path 13359" d="M94.1927 28.2169C95.0658 28.2169 95.7738 27.509 95.7738 26.6358V10.8252C95.7738 9.95206 95.0658 9.24414 94.1927 9.24414H2.49074C1.61759 9.24414 0.909668 9.95206 0.909668 10.8252V26.6358C0.909668 27.509 1.61759 28.2169 2.49074 28.2169C6.85666 28.2169 10.3961 31.7563 10.3961 36.1223C10.3961 40.4882 6.85666 44.0276 2.49074 44.0276C1.61759 44.0276 0.909668 44.7355 0.909668 45.6087V61.4194C0.909668 62.2925 1.61759 63.0005 2.49074 63.0005H94.1927C95.0658 63.0005 95.7738 62.2925 95.7738 61.4194V45.6087C95.7738 44.7355 95.0658 44.0276 94.1927 44.0276C89.8268 44.0276 86.2874 40.4882 86.2874 36.1223C86.2874 31.7563 89.8268 28.2169 94.1927 28.2169ZM83.2288 37.6946C83.9268 42.5584 87.7481 46.3795 92.6116 47.0775V59.8383H4.0718V47.0775C10.1222 46.2091 14.3231 40.6004 13.4547 34.5499C12.7566 29.6863 8.93557 25.8651 4.0718 25.1671V12.4062H92.6116V25.1671C86.5613 26.0355 82.3604 31.6441 83.2288 37.6946Z" fill="#1DC1DD"/>
</g>
</g>
<g id="Group 4955">
<g id="Group 4954">
<path id="Path 13360" d="M48.3418 20.3115C44.8491 20.3115 42.0176 23.143 42.0176 26.6358C42.0176 30.1285 44.8491 32.9601 48.3418 32.9601C51.8346 32.9601 54.6661 30.1285 54.6661 26.6358C54.6661 23.143 51.8346 20.3115 48.3418 20.3115ZM48.3418 29.7979C46.5953 29.7979 45.1796 28.3823 45.1796 26.6358C45.1796 24.8893 46.5953 23.4736 48.3418 23.4736C50.0883 23.4736 51.5039 24.8893 51.5039 26.6358C51.5039 28.3823 50.0883 29.7979 48.3418 29.7979Z" fill="#1DC1DD"/>
</g>
</g>
<g id="Group 4957">
<g id="Group 4956">
<path id="Path 13361" d="M67.3145 39.2842C63.8218 39.2842 60.9902 42.1157 60.9902 45.6085C60.9902 49.1012 63.8218 51.9327 67.3145 51.9327C70.8074 51.9327 73.6388 49.1012 73.6388 45.6085C73.6388 42.1157 70.8074 39.2842 67.3145 39.2842ZM67.3145 48.7706C65.5681 48.7706 64.1524 47.355 64.1524 45.6085C64.1524 43.862 65.5681 42.4464 67.3145 42.4464C69.061 42.4464 70.4767 43.862 70.4767 45.6085C70.4767 47.355 69.061 48.7706 67.3145 48.7706Z" fill="#1DC1DD"/>
</g>
</g>
<g id="Group 4959">
<g id="Group 4958">
<rect id="Rectangle 7350" x="54.5396" y="25.5142" width="35.775" height="3.16214" transform="rotate(-45 54.5396 25.5142)" fill="#1DC1DD"/>
</g>
</g>
</g>
</svg>
