<svg width="95" height="102" viewBox="0 0 95 102" fill="none" xmlns="http://www.w3.org/2000/svg">
<g id="Fuel">
<path id="Path 13377" d="M14.764 91.5542V10.2098C14.764 5.98827 18.1865 2.5658 22.408 2.5658H10.1242C5.90268 2.5658 2.48022 5.98827 2.48022 10.2098V91.554C2.48022 95.7757 5.90268 99.1982 10.1242 99.1982H22.408C18.1865 99.1982 14.764 95.7757 14.764 91.5542Z" fill="#CEE1F2"/>
<path id="Path 13378" d="M92.5613 33.6846C92.5613 38.2073 88.8948 41.8738 84.3719 41.8738H76.1829V33.6846C76.1829 29.162 79.8494 25.4955 84.3719 25.4955C88.8948 25.4955 92.5613 29.162 92.5613 33.6846Z" stroke="#1DC1DD" stroke-width="4" stroke-linecap="round" stroke-linejoin="round"/>
<path id="Path 13379" d="M59.8045 66.4415V10.2098C59.8045 5.98827 56.3821 2.5658 52.1605 2.5658H10.1242C5.90268 2.5658 2.48022 5.98827 2.48022 10.2098V91.554C2.48022 95.7757 5.90268 99.1982 10.1242 99.1982H52.1603C56.3821 99.1982 59.8045 95.7757 59.8045 91.5542V82.8198H84.3721C88.8948 82.8198 92.5613 79.1533 92.5613 74.6307C92.5613 70.108 88.8948 66.4415 84.3721 66.4415C79.8494 66.4415 76.1829 62.775 76.1829 58.2523V41.8739" stroke="#1DC1DD" stroke-width="4" stroke-linecap="round" stroke-linejoin="round"/>
<path id="Path 13380" d="M77.043 30.0273L85.2323 13.6489C86.5757 10.9622 89.3531 9.11719 92.5614 9.11719" stroke="#1DC1DD" stroke-width="4" stroke-linecap="round" stroke-linejoin="round"/>
<path id="Path 13381" d="M39.3315 74.6304C39.3315 79.1532 35.665 82.8196 31.1423 82.8196C26.6197 82.8196 22.9532 79.1532 22.9532 74.6304C22.9532 70.1078 31.1423 58.2522 31.1423 58.2522C31.1423 58.2522 39.3315 70.1078 39.3315 74.6304Z" stroke="#707070" stroke-width="4" stroke-linecap="round" stroke-linejoin="round"/>
<path id="Path 13382" d="M2.48022 33.6847V34.2299C2.48022 38.4514 5.90268 41.8739 10.1242 41.8739H52.1603C56.3821 41.8739 59.8045 38.4514 59.8045 34.2299V33.6847" stroke="#1DC1DD" stroke-width="4" stroke-linecap="round" stroke-linejoin="round"/>
<line id="Line 41" x1="37.1253" y1="23.731" x2="41.3209" y2="23.731" stroke="#707070" stroke-width="4" stroke-linecap="round" stroke-linejoin="round"/>
</g>
</svg>
