<svg width="101" height="101" viewBox="0 0 101 101" fill="none" xmlns="http://www.w3.org/2000/svg">
<g id="g15">
<g id="g17">
<g id="g19">
<g id="g25">
<path id="path27" d="M4.95462 95.855C8.67195 99.5724 14.6987 99.5724 18.4161 95.855L21.4652 92.964C19.532 92.6678 17.6109 91.7981 16.1221 90.309C12.4047 86.5919 12.4047 80.5649 16.1221 76.8478L13.378 73.97L4.95462 82.3936C1.2373 86.111 1.2373 92.1377 4.95462 95.855Z" fill="#CEE1F2"/>
</g>
<g id="g29">
<path id="path31" d="M78.5861 6.66009C71.187 0.764443 60.4723 1.53426 54.0891 8.51704C45.9175 17.4566 39.7553 31.8445 38.2975 48.4067L41.207 51.3163C41.4563 51.0469 41.7126 50.7841 41.9793 50.532C44.7404 38.5634 51.7521 28.3057 58.0552 21.4105C64.4382 14.4275 76.6755 10.4329 84.0746 16.3286L86.8451 13.6203C84.2017 10.9098 81.4565 8.56135 78.5861 6.66009Z" fill="#CEE1F2"/>
</g>
<g id="g33">
<path id="path35" d="M48.7045 59.6267C50.4815 61.3938 53.2785 62.5568 55.7646 62.2408C70.9428 60.3124 83.9371 54.4281 92.2906 46.7923C99.2734 40.4089 100.043 29.6944 94.1473 22.2952C89.3244 15.7845 84.1932 10.3741 78.5862 6.66019C71.1871 0.764441 60.4722 1.53422 54.0893 8.517C45.801 17.5839 39.5766 32.2535 38.2347 49.1138L4.95453 82.3938C1.23749 86.1111 1.23749 92.138 4.95453 95.8551C8.67206 99.5723 14.6987 99.5723 18.4161 95.8551L40.5959 73.6755" stroke="#1DC1DD" stroke-width="4" stroke-linecap="round" stroke-linejoin="round"/>
</g>
<g id="g37">
<path id="path39" d="M80.2124 31.3712L69.0321 20.1909" stroke="#707070" stroke-width="4" stroke-linecap="round" stroke-linejoin="round"/>
</g>
<g id="g41">
<path id="path43" d="M57.242 37.2662C54.4353 37.2662 52.16 34.9909 52.16 32.1842C52.16 29.3776 54.4353 27.1023 57.242 27.1023C60.0486 27.1023 62.3239 29.3776 62.3239 32.1842C62.3239 34.9909 60.0486 37.2662 57.242 37.2662Z" fill="#707070"/>
</g>
<g id="g45">
<path id="path47" d="M68.6255 48.4464C65.8189 48.4464 63.5436 46.1711 63.5436 43.3644C63.5436 40.5578 65.8189 38.2825 68.6255 38.2825C71.4322 38.2825 73.7075 40.5578 73.7075 43.3644C73.7075 46.1711 71.4322 48.4464 68.6255 48.4464Z" fill="#707070"/>
</g>
</g>
</g>
</g>
</svg>
