<svg width="66" height="64" viewBox="0 0 66 64" fill="none" xmlns="http://www.w3.org/2000/svg">
<path fill-rule="evenodd" clip-rule="evenodd" d="M19.8981 23.0625C17.9056 23.0625 16.2903 24.6778 16.2903 26.6703C16.2903 28.6629 17.9056 30.2781 19.8981 30.2781C21.8907 30.2781 23.5059 28.6629 23.5059 26.6703C23.5059 24.6778 21.8907 23.0625 19.8981 23.0625ZM11.9609 26.6703C11.9609 22.2868 15.5145 18.7332 19.8981 18.7332C24.2817 18.7332 27.8353 22.2868 27.8353 26.6703C27.8353 31.0539 24.2817 34.6075 19.8981 34.6075C15.5145 34.6075 11.9609 31.0539 11.9609 26.6703Z" fill="#1DC1DD"/>
<path fill-rule="evenodd" clip-rule="evenodd" d="M28.9774 45.7331C25.3702 49.7724 21.6081 55.2972 17.6308 62.3668C17.0445 63.4087 15.7247 63.7782 14.6827 63.192C13.6408 62.6055 13.2714 61.2859 13.8576 60.244C17.9184 53.0263 21.8554 47.2082 25.7481 42.8494C29.6308 38.5013 33.5749 35.4861 37.6748 34.0663C41.8535 32.6192 46.0258 32.8902 50.1396 34.8078C54.1812 36.6916 58.097 40.1283 61.9859 44.9001C62.7409 45.8269 62.6021 47.1906 61.6753 47.9457C60.7486 48.701 59.3851 48.5619 58.6298 47.6351C54.9567 43.128 51.5305 40.2328 48.3106 38.7316C45.1628 37.2646 42.1536 37.0969 39.0916 38.1573C35.9505 39.2451 32.5941 41.6831 28.9774 45.7331Z" fill="#1DC1DD"/>
<path fill-rule="evenodd" clip-rule="evenodd" d="M4.43147 11.2033C7.0026 8.63215 10.4897 7.18799 14.1257 7.18799H35.1375C36.333 7.18799 37.3022 8.15716 37.3022 9.35267C37.3022 10.5482 36.333 11.5174 35.1375 11.5174H14.1257C11.6378 11.5174 9.25188 12.5055 7.4928 14.2646C5.73369 16.0237 4.74538 18.4098 4.74538 20.8976V49.7601C4.74538 52.2477 5.73363 54.6335 7.4928 56.3927C9.25199 58.1521 11.6379 59.1404 14.1257 59.1404H48.7606C51.2482 59.1404 53.6343 58.1521 55.3935 56.3927C57.1526 54.6335 58.1409 52.2477 58.1409 49.7601V35.3289C58.1409 34.1334 59.1101 33.1642 60.3056 33.1642C61.501 33.1642 62.4703 34.1334 62.4703 35.3289V49.7601C62.4703 53.3962 61.026 56.883 58.4549 59.4541C55.8839 62.0252 52.3967 63.4697 48.7606 63.4697H14.1257C10.4896 63.4697 7.00248 62.0252 4.43147 59.4541C1.86043 56.883 0.416016 53.3962 0.416016 49.7601V20.8976C0.416016 17.2617 1.86038 13.7744 4.43147 11.2033Z" fill="#1DC1DD"/>
<path fill-rule="evenodd" clip-rule="evenodd" d="M53.8117 0.924805C55.0071 0.924805 55.9763 1.89397 55.9763 3.08949V26.1794C55.9763 27.3749 55.0071 28.3441 53.8117 28.3441C52.6162 28.3441 51.647 27.3749 51.647 26.1794V3.08949C51.647 1.89397 52.6162 0.924805 53.8117 0.924805Z" fill="#1DC1DD"/>
<path fill-rule="evenodd" clip-rule="evenodd" d="M52.2831 1.55882C53.1285 0.713465 54.4989 0.713465 55.3442 1.55882L64.5802 10.7948C65.4256 11.6402 65.4256 13.0108 64.5802 13.8562C63.7349 14.7015 62.3645 14.7015 61.5191 13.8562L53.8137 6.15081L46.1083 13.8562C45.2629 14.7015 43.8922 14.7015 43.0471 13.8562C42.2017 13.0108 42.2017 11.6402 43.0471 10.7948L52.2831 1.55882Z" fill="#1DC1DD"/>
</svg>
