<svg width="112" height="112" viewBox="0 0 112 112" fill="none" xmlns="http://www.w3.org/2000/svg">
<path d="M0.0214844 55.8533C0.0214844 65.2711 2.42629 74.5918 6.98213 82.8488L34.7251 66.8318C32.9646 63.4372 32.0365 59.6537 32.0365 55.8533C32.0365 43.1688 42.2055 32.5948 54.8182 32.0256V0C24.5506 0.57935 0.0214844 25.5155 0.0214844 55.8533Z" fill="#1DC1DD"/>
<path d="M35.8025 68.6992L8.05957 84.7166C18.2421 101.619 36.0842 111.69 55.9058 111.69C75.7152 111.691 93.5505 101.62 103.733 84.7166L75.9892 68.6992C71.631 75.507 63.9838 79.7136 55.8969 79.7136C47.8088 79.7136 40.1616 75.507 35.8025 68.6992Z" fill="#1DC1DD"/>
<path d="M79.7555 55.8533C79.7555 59.6537 78.8274 63.4372 77.0669 66.8318L104.81 82.8488C109.367 74.5922 111.772 65.2719 111.772 55.8533C111.772 25.5155 87.2427 0.57935 56.9746 0V32.0256C69.5877 32.5948 79.7555 43.1688 79.7555 55.8533Z" fill="#B3B3B3"/>
</svg>
