<svg width="112" height="112" viewBox="0 0 112 112" fill="none" xmlns="http://www.w3.org/2000/svg">
<path d="M0.0429688 55.8533C0.0429688 65.2711 2.44778 74.5918 7.00362 82.8488L34.7466 66.8318C32.9861 63.4372 32.058 59.6537 32.058 55.8533C32.058 43.1688 42.227 32.5948 54.8397 32.0256V0C24.572 0.57935 0.0429688 25.5155 0.0429688 55.8533Z" fill="#1DC1DD"/>
<path d="M35.824 68.6992L8.08105 84.7166C18.2636 101.619 36.1057 111.69 55.9273 111.69C75.7367 111.691 93.572 101.62 103.755 84.7166L76.0107 68.6992C71.6525 75.507 64.0052 79.7136 55.9184 79.7136C47.8303 79.7136 40.1831 75.507 35.824 68.6992Z" fill="#1DC1DD"/>
<path d="M79.777 55.8533C79.777 59.6537 78.8488 63.4372 77.0884 66.8318L104.831 82.8488C109.388 74.5922 111.793 65.2719 111.793 55.8533C111.793 25.5155 87.2642 0.57935 56.9961 0V32.0256C69.6092 32.5948 79.777 43.1688 79.777 55.8533Z" fill="#1DC1DD"/>
</svg>
