<svg width="202" height="120" viewBox="0 0 202 120" fill="none" xmlns="http://www.w3.org/2000/svg">
<path d="M20.4037 84.0287C19.8133 90.4858 14.9703 94.1472 8.90718 92.2574C6.7416 91.6277 7.92279 88.7142 9.85227 89.3439C13.9466 90.6826 16.7816 88.6353 17.3327 84.0287H11.0728C5.99366 84.0287 1.70215 79.7372 1.70215 74.6188C1.70215 69.5401 5.99366 65.2482 11.0728 65.2482C16.5848 65.2482 20.4823 69.5401 20.4823 76.1151V80.9577H47.5506V84.0287H20.4037ZM17.4116 76.1151C17.4116 71.1149 14.8524 68.3193 11.0728 68.3193C7.6474 68.3193 4.77318 71.1542 4.77318 74.6188C4.77318 78.1231 7.6474 80.9577 11.0728 80.9577H17.4116V76.1151Z" fill="white"/>
<rect x="18.4028" y="80.9577" width="31.4777" height="3.07103" fill="white"/>
<path d="M54.5659 70.0912C54.5659 68.0046 57.6369 68.0046 57.6369 70.0912V76.115C57.6369 80.4855 54.0148 84.0287 49.7232 84.0287H49.605V80.9581H49.7232C52.4006 80.9581 54.5659 78.8711 54.5659 76.115V70.0912ZM51.7313 62.7287C51.7313 61.7443 52.5971 60.8782 53.5815 60.8782C54.5659 60.8782 55.432 61.7443 55.432 62.7287C55.432 63.7523 54.5659 64.6186 53.5815 64.6186C52.5971 64.6186 51.7313 63.7523 51.7313 62.7287ZM56.7708 62.7287C56.7708 61.7443 57.6369 60.8782 58.6213 60.8782C59.566 60.8782 60.4719 61.7443 60.4719 62.7287C60.4719 63.7523 59.566 64.6186 58.6213 64.6186C57.6369 64.6186 56.7708 63.7523 56.7708 62.7287Z" fill="white"/>
<path d="M83.7404 76.1151V82.4932C83.7404 89.8951 78.6617 94.3048 72.165 92.2574C70.0787 91.6667 71.0234 88.5956 73.1101 89.3439C77.2048 90.6826 80.0397 88.6353 80.5908 84.0287H74.3306C69.2515 84.0287 64.96 79.7372 64.96 74.6188C64.96 69.5397 69.2515 65.2482 74.3306 65.2482C79.8425 65.2482 83.7404 69.5397 83.7404 76.1151ZM74.3306 80.9577H80.6694V76.1151C80.6694 71.1145 78.1102 68.3193 74.3306 68.3193C70.9052 68.3193 68.031 71.1538 68.031 74.6188C68.031 78.1228 70.9052 80.9577 74.3306 80.9577Z" fill="white"/>
<path d="M90.0396 61.8417C90.0396 59.755 93.1106 59.755 93.1106 61.8417V82.4539C93.1106 84.5406 90.0396 84.5406 90.0396 82.4539V61.8417Z" fill="white"/>
<path d="M113.749 70.5916C114.733 70.5916 115.599 69.7254 115.599 68.7018C115.599 67.7174 114.733 66.8512 113.749 66.8512C112.765 66.8512 111.898 67.7174 111.898 68.7018C111.898 69.7254 112.765 70.5916 113.749 70.5916Z" fill="white"/>
<path d="M120.954 72.3785V81.4341C120.954 86.0013 117.253 89.702 112.725 89.702C108.158 89.702 104.457 86.0013 104.457 81.4341C104.457 79.1109 105.363 77.0636 106.938 75.4888C108.434 74.1108 106.426 71.9059 104.851 73.2839C102.764 75.292 101.386 78.363 101.386 81.4341C101.386 87.6153 106.544 92.773 112.725 92.773C118.907 92.773 124.025 87.6153 124.025 81.4341V72.3785C124.025 70.2918 120.954 70.2918 120.954 72.3785Z" fill="white"/>
<path d="M181.012 67.6537C175.894 67.6537 171.681 71.906 171.642 76.9458C171.366 79.2292 169.279 80.9616 166.838 80.9616H166.72H159.751H159.475H152.507H152.231H138.356H138.238C135.6 80.9616 133.395 78.8353 133.395 76.1189V61.8455C133.395 59.7589 130.324 59.7589 130.324 61.8455V76.1189C130.324 80.4869 133.919 83.9616 138.12 84.0267V84.0326H138.238H138.356H152.231H152.507H159.475H159.751H166.72H166.838H166.995V84.0242C169.22 83.9797 171.321 83.0117 172.744 81.4734C174.279 84.3869 177.469 86.4343 181.012 86.4343C186.131 86.4343 190.382 82.1821 190.382 77.0244C190.382 71.9453 186.131 67.6537 181.012 67.6537ZM181.012 83.3632C177.547 83.3632 174.752 80.5283 174.752 77.0244C174.752 73.5597 177.547 70.7641 181.012 70.7641C184.477 70.7641 187.311 73.5597 187.311 77.0244C187.311 80.5283 184.477 83.3632 181.012 83.3632Z" fill="white"/>
<path d="M196.682 61.8455V82.4577C196.682 84.5444 199.753 84.5444 199.753 82.4577V61.8455C199.753 59.7589 196.682 59.7589 196.682 61.8455Z" fill="white"/>
<path d="M0.85791 113.121V113.042C0.85791 108.751 4.40114 106.467 9.55916 106.467C12.1576 106.467 14.0082 106.821 15.8194 107.333V106.624C15.8194 102.963 13.5749 101.073 9.75597 101.073C7.70862 101.073 5.97629 101.545 4.48007 102.215C4.28326 102.294 4.08646 102.333 3.92894 102.333C3.22029 102.333 2.59023 101.742 2.59023 101.033C2.59023 100.404 3.02349 99.9312 3.4171 99.7737C5.42482 98.9075 7.47252 98.3957 10.071 98.3957C12.9449 98.3957 15.1501 99.1436 16.646 100.64C18.024 102.018 18.733 103.987 18.733 106.585V117.727C18.733 118.594 18.1029 119.224 17.276 119.224C16.4099 119.224 15.8194 118.594 15.8194 117.806V115.956C14.4018 117.806 12.0394 119.46 8.45655 119.46C4.67688 119.46 0.85791 117.294 0.85791 113.121ZM15.8587 111.546V109.577C14.3625 109.144 12.3548 108.711 9.87385 108.711C6.05488 108.711 3.92894 110.365 3.92894 112.924V113.003C3.92894 115.562 6.29132 117.058 9.04732 117.058C12.7877 117.058 15.8587 114.774 15.8587 111.546Z" fill="#303E48"/>
<path d="M25.1899 100.01C25.1899 99.1829 25.8593 98.4743 26.6861 98.4743C27.5523 98.4743 28.2216 99.1436 28.2216 100.01V102.096C29.5604 100.089 31.3713 98.2382 34.7966 98.2382C38.1041 98.2382 40.2301 100.01 41.3323 102.293C42.7892 100.049 44.9548 98.2382 48.498 98.2382C53.1835 98.2382 56.0577 101.388 56.0577 106.428V117.688C56.0577 118.554 55.3884 119.223 54.5615 119.223C53.6954 119.223 53.026 118.554 53.026 117.688V107.136C53.026 103.199 51.0576 100.994 47.7501 100.994C44.6791 100.994 42.1595 103.278 42.1595 107.294V117.688C42.1595 118.554 41.4902 119.223 40.624 119.223C39.7968 119.223 39.1278 118.554 39.1278 117.688V107.058C39.1278 103.238 37.1197 100.994 33.8912 100.994C30.6626 100.994 28.2216 103.672 28.2216 107.412V117.688C28.2216 118.554 27.5919 119.223 26.7254 119.223C25.8593 119.223 25.1899 118.554 25.1899 117.688V100.01Z" fill="#303E48"/>
<path d="M61.0967 113.121V113.042C61.0967 108.751 64.6399 106.467 69.7979 106.467C72.3964 106.467 74.2469 106.821 76.0582 107.333V106.624C76.0582 102.963 73.8137 101.073 69.9947 101.073C67.9474 101.073 66.2151 101.545 64.7188 102.215C64.522 102.294 64.3252 102.333 64.1677 102.333C63.459 102.333 62.829 101.742 62.829 101.033C62.829 100.404 63.2622 99.9312 63.6559 99.7737C65.6636 98.9075 67.7112 98.3957 70.3097 98.3957C73.1836 98.3957 75.3889 99.1436 76.8847 100.64C78.2627 102.018 78.9717 103.987 78.9717 106.585V117.727C78.9717 118.594 78.3416 119.224 77.5148 119.224C76.6486 119.224 76.0582 118.594 76.0582 117.806V115.956C74.6406 117.806 72.2782 119.46 68.6953 119.46C64.9157 119.46 61.0967 117.294 61.0967 113.121ZM76.0975 111.546V109.577C74.6013 109.144 72.5935 108.711 70.1126 108.711C66.2936 108.711 64.1677 110.365 64.1677 112.924V113.003C64.1677 115.562 66.5301 117.058 69.286 117.058C73.0265 117.058 76.0975 114.774 76.0975 111.546Z" fill="#303E48"/>
<path d="M85.4282 100.01C85.4282 99.1829 86.0976 98.4743 86.9244 98.4743C87.7906 98.4743 88.46 99.1436 88.46 100.01V102.215C89.7986 100.01 91.9246 98.2382 95.4285 98.2382C100.35 98.2382 103.224 101.545 103.224 106.388V117.688C103.224 118.554 102.555 119.223 101.729 119.223C100.862 119.223 100.193 118.554 100.193 117.688V107.136C100.193 103.357 98.1456 100.994 94.5627 100.994C91.0585 100.994 88.46 103.553 88.46 107.372V117.688C88.46 118.554 87.8303 119.223 86.9637 119.223C86.0976 119.223 85.4282 118.554 85.4282 117.688V100.01Z" fill="#303E48"/>
<path d="M117.527 112.845V112.766C117.527 108.475 121.071 106.191 126.229 106.191C128.827 106.191 130.678 106.545 132.489 107.057V106.349C132.489 102.687 130.244 100.797 126.425 100.797C124.378 100.797 122.646 101.269 121.149 101.939C120.953 102.018 120.756 102.057 120.598 102.057C119.89 102.057 119.26 101.467 119.26 100.758C119.26 100.128 119.693 99.6555 120.087 99.4979C122.094 98.6318 124.142 98.1199 126.74 98.1199C129.614 98.1199 131.82 98.8679 133.315 100.364C134.693 101.742 135.402 103.711 135.402 106.309V117.451C135.402 118.318 134.772 118.948 133.945 118.948C133.079 118.948 132.489 118.318 132.489 117.53V115.68C131.071 117.53 128.709 119.184 125.126 119.184C121.346 119.184 117.527 117.019 117.527 112.845ZM132.528 111.27V109.301C131.032 108.868 129.024 108.435 126.543 108.435C122.724 108.435 120.598 110.089 120.598 112.648V112.727C120.598 115.286 122.961 116.782 125.717 116.782C129.457 116.782 132.528 114.499 132.528 111.27Z" fill="#303E48"/>
<path d="M159.301 117.412C159.301 118.239 158.671 118.948 157.805 118.948C156.978 118.948 156.309 118.279 156.309 117.412V115.207C154.93 117.412 152.844 119.184 149.339 119.184C144.418 119.184 141.544 115.877 141.544 111.034V99.7344C141.544 98.8682 142.174 98.1989 143.04 98.1989C143.867 98.1989 144.576 98.8682 144.576 99.7344V110.286C144.576 114.066 146.623 116.428 150.206 116.428C153.671 116.428 156.309 113.869 156.309 110.05V99.7344C156.309 98.8682 156.938 98.1989 157.805 98.1989C158.631 98.1989 159.301 98.8682 159.301 99.7344V117.412Z" fill="#303E48"/>
<path d="M167.175 113.357V103.503H165.521C164.812 103.503 164.183 102.873 164.183 102.164C164.183 101.416 164.812 100.826 165.521 100.826H167.175V96.9944C167.175 96.1675 167.805 95.4589 168.671 95.4589C169.498 95.4589 170.207 96.1675 170.207 96.9944V100.826H175.482C176.23 100.826 176.86 101.456 176.86 102.164C176.86 102.913 176.23 103.503 175.482 103.503H170.207V112.963C170.207 115.444 171.584 116.349 173.632 116.349C174.695 116.349 175.246 116.074 175.482 116.074C176.191 116.074 176.781 116.664 176.781 117.373C176.781 117.924 176.427 118.357 175.915 118.554C175.049 118.908 174.104 119.105 172.923 119.105C169.655 119.105 167.175 117.491 167.175 113.357Z" fill="#303E48"/>
<path d="M180.167 108.672V108.593C180.167 102.845 184.656 97.9628 190.798 97.9628C196.901 97.9628 201.389 102.766 201.389 108.514V108.593C201.389 114.341 196.861 119.224 190.719 119.224C184.616 119.224 180.167 114.42 180.167 108.672ZM198.278 108.672V108.593C198.278 104.223 195.011 100.64 190.719 100.64C186.31 100.64 183.278 104.223 183.278 108.514V108.593C183.278 112.963 186.506 116.507 190.798 116.507C195.207 116.507 198.278 112.963 198.278 108.672Z" fill="#303E48"/>
<path d="M81.0569 42.9638L91.9348 14.8746C93.5538 11.4082 97.072 9.16855 100.898 9.16855C104.668 9.16855 108.163 11.3612 109.804 14.7546L121.13 42.9843C121.409 43.6787 122.082 44.1335 122.83 44.1335H133.602C134.953 44.1335 135.839 42.7214 135.251 41.5051L121.904 13.9051C118.034 5.90106 109.788 0.729126 100.898 0.729126C91.874 0.729126 83.5758 6.01198 79.7568 14.1875L66.9851 41.5274C66.4184 42.7416 67.3044 44.1335 68.6448 44.1335H79.3489C80.1052 44.1335 80.7836 43.669 81.0569 42.9638Z" fill="white"/>
<path d="M102.334 31.9161H99.3017C98.8706 31.9161 98.5027 32.1634 98.4338 32.4996L96.2161 43.3285C96.1295 43.7507 96.5425 44.1335 97.0843 44.1335H105.06C105.615 44.1335 106.031 43.7333 105.923 43.3038L103.197 32.4753C103.115 32.1501 102.754 31.9161 102.334 31.9161Z" fill="#303E48"/>
<path d="M101.482 18.9943H100.406C99.977 18.9943 99.6105 19.2388 99.5389 19.5726L98.429 24.7459C98.3383 25.1694 98.7517 25.5561 99.2959 25.5561H102.846C103.403 25.5561 103.82 25.1513 103.707 24.7202L102.343 19.5472C102.257 19.2252 101.898 18.9943 101.482 18.9943Z" fill="#303E48"/>
<path d="M201.003 56.0004C202.318 56.0004 202.318 57.973 201.003 57.973H195.431C194.116 57.973 194.116 56.0004 195.431 56.0004H195.57C195.328 55.5161 195.189 54.9969 195.189 54.4433C195.189 51.3633 198.788 50.0829 200.726 51.6056C201.972 52.4707 200.795 54.0278 199.549 53.0243C198.546 52.4359 197.127 53.0243 197.127 54.4433C197.127 55.2392 197.888 56.0004 198.684 56.0004H201.003Z" fill="white"/>
<path d="M94.3609 56.0004C95.676 56.0004 95.676 57.973 94.3609 57.973H88.7895C87.4745 57.973 87.4745 56.0004 88.7895 56.0004H88.9282C88.6858 55.5161 88.5475 54.9969 88.5475 54.4433C88.5475 51.3633 92.1463 50.0829 94.0841 51.6056C95.33 52.4707 94.1534 54.0278 92.9078 53.0243C91.904 52.4359 90.4853 53.0243 90.4853 54.4433C90.4853 55.2392 91.2467 56.0004 92.0423 56.0004H94.3609Z" fill="white"/>
</svg>
