<svg width="173" height="102" viewBox="0 0 173 102" fill="none" xmlns="http://www.w3.org/2000/svg">
<path d="M17.4684 71.4258C16.9645 76.9363 12.8315 80.061 7.65717 78.4482C5.80904 77.9108 6.81708 75.4244 8.46372 75.9618C11.9579 77.1042 14.3772 75.357 14.8476 71.4258H9.50529C5.17075 71.4258 1.50833 67.7634 1.50833 63.3953C1.50833 59.061 5.17075 55.3983 9.50529 55.3983C14.2093 55.3983 17.5355 59.061 17.5355 64.6721V68.8049H40.6358V71.4258H17.4684ZM14.9149 64.6721C14.9149 60.405 12.7309 58.0192 9.50529 58.0192C6.58206 58.0192 4.12917 60.4385 4.12917 63.3953C4.12917 66.3859 6.58206 68.8049 9.50529 68.8049H14.9149V64.6721Z" fill="#1DC1DD"/>
<rect x="15.7607" y="68.8049" width="26.8634" height="2.62084" fill="#1DC1DD"/>
<path d="M46.6226 59.5314C46.6226 57.7506 49.2435 57.7506 49.2435 59.5314V64.6722C49.2435 68.402 46.1523 71.4258 42.4899 71.4258H42.389V68.8052H42.4899C44.7748 68.8052 46.6226 67.0242 46.6226 64.6722V59.5314ZM44.2036 53.2481C44.2036 52.4081 44.9425 51.6689 45.7825 51.6689C46.6226 51.6689 47.3618 52.4081 47.3618 53.2481C47.3618 54.1217 46.6226 54.8609 45.7825 54.8609C44.9425 54.8609 44.2036 54.1217 44.2036 53.2481ZM48.5043 53.2481C48.5043 52.4081 49.2435 51.6689 50.0836 51.6689C50.8898 51.6689 51.6628 52.4081 51.6628 53.2481C51.6628 54.1217 50.8898 54.8609 50.0836 54.8609C49.2435 54.8609 48.5043 54.1217 48.5043 53.2481Z" fill="#1DC1DD"/>
<path d="M71.5204 64.6721V70.1154C71.5204 76.4321 67.1861 80.1954 61.6418 78.4482C59.8613 77.9441 60.6676 75.3232 62.4483 75.9618C65.9427 77.1042 68.3621 75.357 68.8325 71.4258H63.4899C59.1553 71.4258 55.4929 67.7634 55.4929 63.3953C55.4929 59.0608 59.1553 55.3983 63.4899 55.3983C68.1939 55.3983 71.5204 59.0608 71.5204 64.6721ZM63.4899 68.8049H68.8995V64.6721C68.8995 60.4047 66.7155 58.0192 63.4899 58.0192C60.5667 58.0192 58.1138 60.4382 58.1138 63.3953C58.1138 66.3856 60.5667 68.8049 63.4899 68.8049Z" fill="#1DC1DD"/>
<path d="M76.8962 52.4911C76.8962 50.7104 79.517 50.7104 79.517 52.4911V70.0818C79.517 71.8626 76.8962 71.8626 76.8962 70.0818V52.4911Z" fill="#1DC1DD"/>
<path d="M97.13 59.9584C97.9698 59.9584 98.7093 59.2192 98.7093 58.3456C98.7093 57.5055 97.9698 56.7663 97.13 56.7663C96.2899 56.7663 95.5507 57.5055 95.5507 58.3456C95.5507 59.2192 96.2899 59.9584 97.13 59.9584Z" fill="#1DC1DD"/>
<path d="M103.279 61.4834V69.2115C103.279 73.1092 100.12 76.2675 96.2561 76.2675C92.3586 76.2675 89.2003 73.1092 89.2003 69.2115C89.2003 67.2289 89.9731 65.4817 91.317 64.1378C92.5939 62.9618 90.8802 61.0801 89.5363 62.2561C87.7556 63.9698 86.5795 66.5906 86.5795 69.2115C86.5795 74.4867 90.9811 78.8883 96.2561 78.8883C101.532 78.8883 105.9 74.4867 105.9 69.2115V61.4834C105.9 59.7026 103.279 59.7026 103.279 61.4834Z" fill="#1DC1DD"/>
<path d="M154.533 57.4512C150.165 57.4512 146.57 61.0801 146.536 65.3811C146.301 67.3298 144.52 68.8082 142.437 68.8082H142.336H136.389H136.153H130.206H129.971H118.13H118.029C115.778 68.8082 113.896 66.9936 113.896 64.6755V52.4944C113.896 50.7137 111.275 50.7137 111.275 52.4944V64.6755C111.275 68.4031 114.343 71.3685 117.928 71.424V71.4291H118.029H118.13H129.971H130.206H136.153H136.389H142.336H142.437H142.571V71.4219C144.47 71.3839 146.262 70.5578 147.477 69.245C148.787 71.7314 151.509 73.4787 154.533 73.4787C158.901 73.4787 162.53 69.8498 162.53 65.4482C162.53 61.1137 158.901 57.4512 154.533 57.4512ZM154.533 70.8578C151.576 70.8578 149.19 68.4385 149.19 65.4482C149.19 62.4914 151.576 60.1056 154.533 60.1056C157.49 60.1056 159.909 62.4914 159.909 65.4482C159.909 68.4385 157.49 70.8578 154.533 70.8578Z" fill="#1DC1DD"/>
<path d="M167.906 52.4944V70.0851C167.906 71.8659 170.526 71.8659 170.526 70.0851V52.4944C170.526 50.7137 167.906 50.7137 167.906 52.4944Z" fill="#1DC1DD"/>
<path d="M0.787842 96.2532V96.1861C0.787842 92.5237 3.81166 90.5747 8.21356 90.5747C10.4311 90.5747 12.0104 90.8771 13.5561 91.3139V90.7091C13.5561 87.5844 11.6407 85.9716 8.38152 85.9716C6.63429 85.9716 5.15591 86.3746 3.87902 86.9458C3.71107 87.0131 3.54311 87.0467 3.40869 87.0467C2.80392 87.0467 2.26622 86.5428 2.26622 85.9378C2.26622 85.4003 2.63596 84.9971 2.97188 84.8626C4.68528 84.1235 6.4328 83.6867 8.65037 83.6867C11.103 83.6867 12.9849 84.325 14.2615 85.6019C15.4375 86.7778 16.0426 88.458 16.0426 90.6756V100.184C16.0426 100.924 15.5049 101.461 14.7992 101.461C14.06 101.461 13.5561 100.924 13.5561 100.252V98.6725C12.3463 100.252 10.3302 101.663 7.27259 101.663C4.04698 101.663 0.787842 99.815 0.787842 96.2532ZM13.5897 94.9092V93.2294C12.3128 92.8596 10.5994 92.4899 8.48212 92.4899C5.22298 92.4899 3.40869 93.9012 3.40869 96.0852V96.1523C3.40869 98.3363 5.42476 99.6132 7.77676 99.6132C10.9688 99.6132 13.5897 97.6645 13.5897 94.9092Z" fill="#303E48"/>
<path d="M21.5528 85.0642C21.5528 84.3585 22.124 83.7537 22.8297 83.7537C23.5689 83.7537 24.1401 84.325 24.1401 85.0642V86.8449C25.2826 85.1315 26.828 83.5522 29.7513 83.5522C32.5739 83.5522 34.3882 85.0642 35.3289 87.0129C36.5722 85.0977 38.4203 83.5522 41.4442 83.5522C45.4428 83.5522 47.8957 86.2401 47.8957 90.5412V100.151C47.8957 100.89 47.3244 101.461 46.6188 101.461C45.8796 101.461 45.3083 100.89 45.3083 100.151V91.1459C45.3083 87.7859 43.6285 85.9043 40.8059 85.9043C38.185 85.9043 36.0348 87.853 36.0348 91.2803V100.151C36.0348 100.89 35.4636 101.461 34.7244 101.461C34.0184 101.461 33.4475 100.89 33.4475 100.151V91.0788C33.4475 87.8194 31.7338 85.9043 28.9785 85.9043C26.2233 85.9043 24.1401 88.1892 24.1401 91.3809V100.151C24.1401 100.89 23.6027 101.461 22.8632 101.461C22.124 101.461 21.5528 100.89 21.5528 100.151V85.0642Z" fill="#303E48"/>
<path d="M52.1961 96.2532V96.1861C52.1961 92.5237 55.2199 90.5747 59.6218 90.5747C61.8394 90.5747 63.4186 90.8771 64.9644 91.3139V90.7091C64.9644 87.5844 63.0489 85.9716 59.7898 85.9716C58.0425 85.9716 56.5641 86.3746 55.2872 86.9458C55.1193 87.0131 54.9513 87.0467 54.8169 87.0467C54.2121 87.0467 53.6745 86.5428 53.6745 85.9378C53.6745 85.4003 54.0442 84.9971 54.3801 84.8626C56.0935 84.1235 57.841 83.6867 60.0586 83.6867C62.5112 83.6867 64.3931 84.325 65.6698 85.6019C66.8457 86.7778 67.4508 88.458 67.4508 90.6756V100.184C67.4508 100.924 66.9131 101.461 66.2074 101.461C65.4682 101.461 64.9644 100.924 64.9644 100.252V98.6725C63.7545 100.252 61.7385 101.663 58.6808 101.663C55.4552 101.663 52.1961 99.815 52.1961 96.2532ZM64.9979 94.9092V93.2294C63.721 92.8596 62.0076 92.4899 59.8904 92.4899C56.6312 92.4899 54.8169 93.9012 54.8169 96.0852V96.1523C54.8169 98.3363 56.833 99.6132 59.185 99.6132C62.3771 99.6132 64.9979 97.6645 64.9979 94.9092Z" fill="#303E48"/>
<path d="M72.9608 85.0642C72.9608 84.3585 73.532 83.7537 74.2376 83.7537C74.9768 83.7537 75.5481 84.325 75.5481 85.0642V86.9458C76.6905 85.0642 78.5048 83.5522 81.4951 83.5522C85.6955 83.5522 88.1481 86.3746 88.1481 90.5073V100.151C88.1481 100.89 87.5769 101.461 86.8715 101.461C86.1323 101.461 85.5611 100.89 85.5611 100.151V91.1459C85.5611 87.9203 83.8139 85.9043 80.7562 85.9043C77.7656 85.9043 75.5481 88.0883 75.5481 91.3474V100.151C75.5481 100.89 75.0107 101.461 74.2711 101.461C73.532 101.461 72.9608 100.89 72.9608 100.151V85.0642Z" fill="#303E48"/>
<path d="M100.354 96.0178V95.9508C100.354 92.2883 103.378 90.3394 107.78 90.3394C109.998 90.3394 111.577 90.6417 113.123 91.0785V90.4738C113.123 87.349 111.207 85.7363 107.948 85.7363C106.201 85.7363 104.722 86.1392 103.446 86.7105C103.278 86.7778 103.11 86.8114 102.975 86.8114C102.37 86.8114 101.833 86.3075 101.833 85.7024C101.833 85.165 102.202 84.7617 102.538 84.6273C104.252 83.8881 105.999 83.4513 108.217 83.4513C110.669 83.4513 112.551 84.0896 113.828 85.3665C115.004 86.5425 115.609 88.2226 115.609 90.4402V99.9491C115.609 100.688 115.071 101.226 114.366 101.226C113.627 101.226 113.123 100.688 113.123 100.016V98.4372C111.913 100.016 109.897 101.428 106.839 101.428C103.614 101.428 100.354 99.5797 100.354 96.0178ZM113.156 94.6739V92.9937C111.879 92.6243 110.166 92.2546 108.049 92.2546C104.789 92.2546 102.975 93.6658 102.975 95.8499V95.9169C102.975 98.101 104.991 99.3779 107.343 99.3779C110.535 99.3779 113.156 97.4292 113.156 94.6739Z" fill="#303E48"/>
<path d="M136.004 99.9156C136.004 100.621 135.467 101.226 134.728 101.226C134.022 101.226 133.451 100.655 133.451 99.9156V98.034C132.275 99.9156 130.494 101.428 127.503 101.428C123.303 101.428 120.85 98.6052 120.85 94.4724V84.8291C120.85 84.09 121.388 83.5187 122.127 83.5187C122.833 83.5187 123.438 84.09 123.438 84.8291V93.8341C123.438 97.0597 125.185 99.0755 128.243 99.0755C131.199 99.0755 133.451 96.8915 133.451 93.6323V84.8291C133.451 84.09 133.988 83.5187 134.728 83.5187C135.433 83.5187 136.004 84.09 136.004 84.8291V99.9156Z" fill="#303E48"/>
<path d="M142.724 96.4547V88.0452H141.313C140.708 88.0452 140.171 87.5078 140.171 86.9028C140.171 86.2645 140.708 85.7606 141.313 85.7606H142.724V82.4908C142.724 81.7851 143.262 81.1804 144.001 81.1804C144.707 81.1804 145.311 81.7851 145.311 82.4908V85.7606H149.814C150.452 85.7606 150.99 86.298 150.99 86.9028C150.99 87.5414 150.452 88.0452 149.814 88.0452H145.311V96.1188C145.311 98.2354 146.487 99.0085 148.235 99.0085C149.142 99.0085 149.612 98.7732 149.814 98.7732C150.419 98.7732 150.922 99.277 150.922 99.8818C150.922 100.352 150.62 100.722 150.183 100.89C149.444 101.192 148.638 101.36 147.63 101.36C144.841 101.36 142.724 99.9826 142.724 96.4547Z" fill="#303E48"/>
<path d="M153.812 92.4563V92.389C153.812 87.4835 157.643 83.3172 162.884 83.3172C168.092 83.3172 171.923 87.4161 171.923 92.3219V92.389C171.923 97.2948 168.059 101.461 162.817 101.461C157.609 101.461 153.812 97.3621 153.812 92.4563ZM169.268 92.4563V92.389C169.268 88.6595 166.48 85.6019 162.817 85.6019C159.054 85.6019 156.467 88.6595 156.467 92.3219V92.389C156.467 96.1187 159.222 99.1429 162.884 99.1429C166.648 99.1429 169.268 96.1187 169.268 92.4563Z" fill="#303E48"/>
<path d="M69.2304 36.3806L78.5137 12.409C79.8954 9.45078 82.8979 7.53945 86.1629 7.53945C89.3799 7.53945 92.3628 9.41072 93.7634 12.3066L103.43 36.3981C103.667 36.9907 104.241 37.3788 104.88 37.3788H114.073C115.226 37.3788 115.982 36.1738 115.48 35.1358L104.09 11.5817C100.787 4.75094 93.7501 0.337173 86.1626 0.337173C78.4618 0.337173 71.38 4.84561 68.1209 11.8227L57.2215 35.1547C56.7378 36.191 57.4939 37.3788 58.6378 37.3788H67.7728C68.4182 37.3788 68.9972 36.9824 69.2304 36.3806Z" fill="#1DC1DD"/>
<path d="M87.3887 26.9524H84.8005C84.4326 26.9524 84.1186 27.1634 84.0599 27.4504L82.1672 36.6919C82.0933 37.0521 82.4459 37.3788 82.9082 37.3788H89.7149C90.188 37.3788 90.5431 37.0373 90.4508 36.6708L88.1247 27.4296C88.0549 27.1521 87.7469 26.9524 87.3887 26.9524Z" fill="#303E48"/>
<path d="M86.6611 15.9248H85.7429C85.3771 15.9248 85.0643 16.1335 85.0032 16.4183L84.056 20.8333C83.9785 21.1947 84.3313 21.5247 84.7957 21.5247H87.8252C88.3012 21.5247 88.657 21.1793 88.56 20.8113L87.3958 16.3967C87.3231 16.1219 87.0166 15.9248 86.6611 15.9248Z" fill="#303E48"/>
<path d="M171.593 47.5061C172.715 47.5061 172.715 49.1896 171.593 49.1896H166.838C165.716 49.1896 165.716 47.5061 166.838 47.5061H166.957C166.75 47.0928 166.632 46.6497 166.632 46.1773C166.632 43.5488 169.703 42.4561 171.357 43.7556C172.42 44.4939 171.416 45.8227 170.353 44.9663C169.496 44.4642 168.286 44.9663 168.286 46.1773C168.286 46.8566 168.936 47.5061 169.615 47.5061H171.593Z" fill="#1DC1DD"/>
<path d="M80.5841 47.5061C81.7064 47.5061 81.7064 49.1896 80.5841 49.1896H75.8294C74.7071 49.1896 74.7071 47.5061 75.8294 47.5061H75.9478C75.741 47.0928 75.6229 46.6497 75.6229 46.1773C75.6229 43.5488 78.6942 42.4561 80.3479 43.7556C81.4111 44.4939 80.407 45.8227 79.344 44.9663C78.4873 44.4642 77.2766 44.9663 77.2766 46.1773C77.2766 46.8566 77.9265 47.5061 78.6054 47.5061H80.5841Z" fill="#1DC1DD"/>
</svg>
