<svg width="112" height="112" viewBox="0 0 112 112" fill="none" xmlns="http://www.w3.org/2000/svg">
<path d="M0 55.8533C0 65.2711 2.40481 74.5918 6.96065 82.8488L34.7036 66.8318C32.9432 63.4372 32.015 59.6537 32.015 55.8533C32.015 43.1688 42.184 32.5948 54.7967 32.0256V0C24.5291 0.57935 0 25.5155 0 55.8533Z" fill="#1DC1DD"/>
<path d="M35.781 68.6992L8.03809 84.7166C18.2206 101.619 36.0627 111.69 55.8843 111.69C75.6937 111.691 93.529 101.62 103.712 84.7166L75.9678 68.6992C71.6095 75.507 63.9623 79.7136 55.8754 79.7136C47.7873 79.7136 40.1401 75.507 35.781 68.6992Z" fill="#B3B3B3"/>
<path d="M79.734 55.8533C79.734 59.6537 78.8059 63.4372 77.0454 66.8318L104.788 82.8488C109.345 74.5922 111.75 65.2719 111.75 55.8533C111.75 25.5155 87.2212 0.57935 56.9531 0V32.0256C69.5662 32.5948 79.734 43.1688 79.734 55.8533Z" fill="#B3B3B3"/>
</svg>
