<svg width="97" height="98" viewBox="0 0 97 98" fill="none" xmlns="http://www.w3.org/2000/svg">
<g id="Insurance">
<g id="Group 4987">
<path id="Path 13383" d="M18.3146 86.4595C15.7357 85.1702 13.9652 82.5049 13.9652 79.426V53.8837C13.9652 50.4354 16.187 47.5078 19.2764 46.4492L10.0356 47.9894C5.69488 47.9894 2.17627 51.5079 2.17627 55.8485V79.426C2.17627 82.5049 3.94678 85.1702 6.5256 86.4595L22.2442 94.3186C23.3005 94.8467 24.4926 95.1443 25.7542 95.1443C27.0158 95.1443 28.2079 94.8467 29.2641 94.3186L31.6487 93.1263L18.3146 86.4595Z" fill="#CEE1F2"/>
</g>
<g id="Group 4988">
<path id="Path 13384" d="M63.4789 47.9893V18.1245H71.3383C75.6786 18.1245 79.1974 21.6433 79.1974 25.9836C79.1974 30.3241 75.6786 33.8428 71.3383 33.8428H63.4789" stroke="#707070" stroke-width="4" stroke-linecap="round" stroke-linejoin="round"/>
<path id="Path 13385" d="M47.7603 33.122V10.2654C47.7603 5.92479 51.2789 2.40625 55.6195 2.40625H87.0568C91.3975 2.40625 94.916 5.92479 94.916 10.2654V55.8485C94.916 60.1887 91.3975 63.7076 87.0568 63.7076H65.0507" stroke="#1DC1DD" stroke-width="4" stroke-linecap="round" stroke-linejoin="round"/>
</g>
<path id="Path 13386" d="M10.0356 47.9893C16.1743 47.9893 19.6155 40.1301 25.7542 40.1301C31.8929 40.1301 35.3341 47.9893 41.4728 47.9893C45.8135 47.9893 49.3321 51.5078 49.3321 55.8484V79.4259C49.3321 82.5049 47.5616 85.1702 44.9828 86.4595L29.2641 94.3186C28.2079 94.8467 27.0158 95.1442 25.7542 95.1442C24.4926 95.1442 23.3005 94.8467 22.2442 94.3186L6.5256 86.4595C3.94678 85.1702 2.17627 82.5049 2.17627 79.4259V55.8484C2.17627 51.5078 5.69488 47.9893 10.0356 47.9893Z" stroke="#1DC1DD" stroke-width="4" stroke-linecap="round" stroke-linejoin="round"/>
<path id="Path 13387" d="M17.8949 67.6372L21.8246 71.5669L33.6135 61.7429" stroke="#707070" stroke-width="4" stroke-linecap="round" stroke-linejoin="round"/>
</g>
</svg>
