<svg width="696" height="388" viewBox="0 0 696 388" fill="none" xmlns="http://www.w3.org/2000/svg">
<mask id="mask0_2_1053" style="mask-type:alpha" maskUnits="userSpaceOnUse" x="0" y="0" width="686" height="387">
<path d="M0 20C0 8.95432 8.9543 0 20 0H666C677.046 0 686 8.95431 686 20V367C686 378.046 677.046 387 666 387H20C8.95432 387 0 378.046 0 367V20Z" fill="url(#paint0_linear_2_1053)"/>
</mask>
<g mask="url(#mask0_2_1053)">
<path d="M543.544 380.074L616.568 191.514C627.436 168.245 651.053 153.211 676.736 153.211C702.041 153.211 725.504 167.93 736.521 190.709L812.555 380.211C814.424 384.873 818.941 387.926 823.964 387.926H896.275C905.343 387.926 911.29 378.447 907.341 370.282L817.751 185.007C791.769 131.276 736.416 96.5579 676.734 96.5579C616.16 96.5579 560.455 132.021 534.818 186.902L449.084 370.431C445.277 378.582 451.227 387.926 460.223 387.926H532.08C537.157 387.926 541.711 384.807 543.544 380.074Z" fill="white"/>
<path d="M686.376 305.912H666.017C663.123 305.912 660.653 307.572 660.191 309.829L645.304 382.522C644.723 385.356 647.496 387.926 651.13 387.926H704.674C708.394 387.926 711.188 385.239 710.462 382.356L692.165 309.665C691.616 307.483 689.193 305.912 686.376 305.912Z" fill="#303E48"/>
<path d="M680.653 219.167H673.431C670.553 219.167 668.092 220.808 667.611 223.049L660.161 257.777C659.552 260.62 662.327 263.215 665.98 263.215H689.81C693.553 263.215 696.352 260.498 695.589 257.604L686.432 222.879C685.86 220.717 683.449 219.167 680.653 219.167Z" fill="#303E48"/>
</g>
<defs>
<linearGradient id="paint0_linear_2_1053" x1="686" y1="193.5" x2="0" y2="193.5" gradientUnits="userSpaceOnUse">
<stop stop-color="#219BB0"/>
<stop offset="1" stop-color="#1DC1DD"/>
</linearGradient>
</defs>
</svg>
