<svg width="64" height="95" viewBox="0 0 64 95" fill="none" xmlns="http://www.w3.org/2000/svg">
<g id="Padlock">
<g id="Group 4897">
<g id="Group 4896">
<path id="Path 13287" d="M54.9665 25.3949V50.2027H47.9563V25.3949C47.9563 15.9605 40.791 8.28971 31.9764 8.28971C23.1617 8.28971 15.9964 15.9605 15.9964 25.3949V50.2027H8.98535V25.3949C8.98535 11.8835 19.2985 0.896484 31.9764 0.896484C44.6534 0.896484 54.9665 11.8835 54.9665 25.3949Z" fill="#C7C7C7"/>
<path id="Path 13288" d="M8.98535 31.8457L15.996 32.1281V50.2036H8.98535V31.8457Z" fill="#A6A6A6"/>
<path id="Path 13289" d="M54.9667 33.7167V50.2023H47.9561V33.4297L54.9667 33.7167Z" fill="#A6A6A6"/>
</g>
<rect id="Rectangle 7311" y="36.0762" width="63.9515" height="58.0187" fill="#04D9F1"/>
<rect id="Rectangle 7312" opacity="0.1" x="31.9756" y="36.0762" width="31.9758" height="58.0187" fill="black"/>
<path id="Path 13290" d="M34.6804 67.2103L37.3573 79.9103H25.9961L28.673 67.2103C27.0734 66.1985 25.9961 64.4358 25.9961 62.4115C25.9961 59.2451 28.5427 56.7305 31.6772 56.7305C34.8107 56.7305 37.3573 59.2451 37.3573 62.4115C37.3573 64.4358 36.2799 66.1985 34.6804 67.2103Z" fill="#263238"/>
</g>
</g>
</svg>
