<svg width="32" height="46" viewBox="0 0 32 46" fill="none" xmlns="http://www.w3.org/2000/svg">
<path d="M28.1199 28.4601L18.4531 38.1494V3.01993C18.4531 1.77545 17.4443 0.766602 16.1998 0.766602C14.9553 0.766602 13.9464 1.77545 13.9464 3.01993V38.1494L4.27965 28.4601C3.39608 27.5765 1.9635 27.5765 1.07992 28.4601C0.196341 29.3436 0.196341 30.7762 1.07992 31.6598L14.5999 45.1798C15.023 45.6064 15.599 45.8463 16.1998 45.8463C16.8006 45.8463 17.3765 45.6064 17.7996 45.1798L31.3196 31.6598C32.2032 30.7762 32.2032 29.3436 31.3196 28.4601C30.4361 27.5765 29.0035 27.5765 28.1199 28.4601Z" fill="#1DC1DD"/>
</svg>
