<svg width="84" height="102" viewBox="0 0 84 102" fill="none" xmlns="http://www.w3.org/2000/svg">
<g id="service-station">
<path id="Path 13388" d="M43.0875 89.2028L43.0292 89.193C31.3057 74.3104 15.8292 54.6299 15.8292 41.3327C15.8292 21.5734 29.5596 5.94398 48.4275 2.99177C46.3626 2.66071 44.2449 2.48608 42.0852 2.48608H42.0346C20.0589 2.48608 2.31702 20.3008 2.31702 42.2765C2.31702 55.5737 18.4078 78.4559 30.1312 93.3386L30.1896 93.3484C35.8436 100.525 46.3665 101 52.6803 94.7946C49.0534 94.2433 45.5922 92.3823 43.0875 89.2028Z" fill="#CEE1F2"/>
<path id="Path 13389" d="M41.8299 2.48633C19.8542 2.48633 2.1123 20.3011 2.1123 42.2768C2.1123 55.574 18.203 78.4562 29.9264 93.3388L29.9848 93.3486C36.0497 101.047 47.7193 101.038 53.784 93.3388C65.5074 78.4562 81.5474 55.574 81.5474 42.2768C81.5474 20.3011 63.8563 2.48633 41.8806 2.48633H41.8299Z" stroke="#1DC1DD" stroke-width="4" stroke-linecap="round" stroke-linejoin="round"/>
<line id="Line 42" x1="54.8534" y1="57.7803" x2="54.8534" y2="55.2704" stroke="#707070" stroke-width="4" stroke-linecap="round" stroke-linejoin="round"/>
<line id="Line 43" x1="32.5016" y1="57.7803" x2="32.5016" y2="55.2704" stroke="#707070" stroke-width="4" stroke-linecap="round" stroke-linejoin="round"/>
<path id="Path 13390" d="M63.3265 35.8561H62.9914C62.9818 35.8337 62.9748 35.8103 62.9649 35.788L59.2943 27.6438C59.2909 27.6363 59.2876 27.6289 59.2841 27.6213C57.5777 23.8954 54.1726 21.1654 50.1751 20.3184C47.8011 19.8156 44.9013 19.4778 41.7408 19.4778C38.6418 19.4778 35.8315 19.8037 33.5285 20.2889C29.5128 21.1353 26.0948 23.8678 24.3859 27.5986C24.3824 27.6062 24.3792 27.6137 24.3757 27.6213L20.695 35.7878C20.685 35.8101 20.6783 35.8334 20.6686 35.856H20.3334C18.0721 35.856 16.2389 37.6891 16.2389 39.9505C16.2389 42.212 18.0721 44.0451 20.3334 44.0451V47.8293C20.3334 53.0803 24.5415 57.3526 29.7138 57.3526H53.9463C59.1187 57.3526 63.3265 53.0805 63.3265 47.8293V44.0451C65.5879 44.0451 67.4211 42.212 67.4211 39.9505C67.4211 37.6891 65.5879 35.8561 63.3265 35.8561ZM31.8356 30.9993C32.4699 29.6227 33.7332 28.6149 35.2169 28.3022C36.7153 27.9865 38.8995 27.667 41.7408 27.667C44.6468 27.667 46.9229 28.0005 48.4779 28.3299C49.9474 28.6413 51.2014 29.6473 51.8346 31.0221L54.0134 35.8561H29.6469L31.8356 30.9993ZM31.3887 51.4156C28.675 51.4156 26.4752 49.2158 26.4752 46.5021C26.4752 43.7884 28.675 41.5886 31.3887 41.5886C34.1024 41.5886 36.3022 43.7884 36.3022 46.5021C36.3022 49.2158 34.1024 51.4156 31.3887 51.4156ZM52.2711 51.4156C49.5574 51.4156 47.3576 49.2158 47.3576 46.5021C47.3576 43.7884 49.5574 41.5886 52.2711 41.5886C54.9848 41.5886 57.1847 43.7884 57.1847 46.5021C57.1847 49.2158 54.9848 51.4156 52.2711 51.4156Z" fill="#707070"/>
</g>
</svg>
