<svg width="102" height="102" viewBox="0 0 102 102" fill="none" xmlns="http://www.w3.org/2000/svg">
<g id="tire">
<path id="Path 13395" d="M20.2383 98.521L23.2452 96.9462C29.8606 92.1744 30.4107 83.8435 27.5445 80.1584C20.3886 70.9578 15.056 63.4565 15.056 50.882C15.056 26.2827 33.4395 5.97805 57.2174 2.9548C55.1916 2.69623 53.1275 2.56357 51.0329 2.56582C24.3743 2.59571 2.77222 24.2162 2.77222 50.882C2.77222 63.4565 7.57742 74.9077 15.4501 83.5028C17.4509 85.6873 16.8066 89.1843 14.1824 90.5589L11.1756 92.1336C8.33472 94.5513 10.0444 99.1982 13.7746 99.1982H19.5562C19.6909 99.0209 19.9108 98.7996 20.2383 98.521Z" fill="#CEE1F2"/>
<path id="Path 13396" d="M91.2187 92.1247L88.0098 90.3421C85.4601 88.9258 84.911 85.5076 86.8715 83.3481C94.659 74.7701 99.4046 63.3804 99.4046 50.8823C99.4046 24.2541 77.6613 2.53618 51.0329 2.56607C24.3741 2.59576 2.77222 24.2162 2.77222 50.8821C2.77222 63.4568 7.57722 74.9077 15.4501 83.5031C17.4509 85.6876 16.8066 89.1846 14.1822 90.5591L11.1753 92.1339C8.33472 94.5513 10.0444 99.1983 13.7746 99.1983H88.6301C92.3673 99.1983 94.073 94.537 91.2187 92.1247ZM91.2187 92.1247L88.0098 90.3421C85.4601 88.9258 84.911 85.5076 86.8715 83.3481C94.659 74.7701 99.4046 63.3804 99.4046 50.8823C99.4046 24.2541 77.6613 2.53618 51.0329 2.56607C24.3741 2.59576 2.77222 24.2162 2.77222 50.8821C2.77222 63.4568 7.57722 74.9077 15.4501 83.5031C17.4509 85.6876 16.8066 89.1846 14.1822 90.5591L11.1753 92.1339C8.33472 94.5513 10.0444 99.1983 13.7746 99.1983H88.6301C92.3673 99.1983 94.073 94.537 91.2187 92.1247ZM91.2187 92.1247L88.0098 90.3421C85.4601 88.9258 84.911 85.5076 86.8715 83.3481C94.659 74.7701 99.4046 63.3804 99.4046 50.8823C99.4046 24.2541 77.6613 2.53618 51.0329 2.56607C24.3741 2.59576 2.77222 24.2162 2.77222 50.8821C2.77222 63.4568 7.57722 74.9077 15.4501 83.5031C17.4509 85.6876 16.8066 89.1846 14.1822 90.5591L11.1753 92.1339C8.33472 94.5513 10.0444 99.1983 13.7746 99.1983H88.6301C92.3673 99.1983 94.073 94.537 91.2187 92.1247ZM91.2187 92.1247L88.0098 90.3421C85.4601 88.9258 84.911 85.5076 86.8715 83.3481C94.659 74.7701 99.4046 63.3804 99.4046 50.8823C99.4046 24.2541 77.6613 2.53618 51.0329 2.56607C24.3741 2.59576 2.77222 24.2162 2.77222 50.8821C2.77222 63.4568 7.57722 74.9077 15.4501 83.5031C17.4509 85.6876 16.8066 89.1846 14.1822 90.5591L11.1753 92.1339C8.33472 94.5513 10.0444 99.1983 13.7746 99.1983H88.6301C92.3673 99.1983 94.073 94.537 91.2187 92.1247ZM91.2187 92.1247L88.0098 90.3421C85.4601 88.9258 84.911 85.5076 86.8715 83.3481C94.659 74.7701 99.4046 63.3804 99.4046 50.8823C99.4046 24.2541 77.6613 2.53618 51.0329 2.56607C24.3741 2.59576 2.77222 24.2162 2.77222 50.8821C2.77222 63.4568 7.57722 74.9077 15.4501 83.5031C17.4509 85.6876 16.8066 89.1846 14.1822 90.5591L11.1753 92.1339C8.33472 94.5513 10.0444 99.1983 13.7746 99.1983H88.6301C92.3673 99.1983 94.073 94.537 91.2187 92.1247ZM51.0884 18.7395C68.8401 18.7395 83.231 33.1302 83.231 50.8821C83.231 68.634 68.8401 83.0246 51.0884 83.0246C33.3367 83.0246 18.9459 68.634 18.9459 50.8821C18.9459 33.1302 33.3367 18.7395 51.0884 18.7395Z" stroke="#1DC1DD" stroke-width="4" stroke-linecap="round" stroke-linejoin="round"/>
<path id="Path 13397" d="M51.0884 42.6929V33.0706M51.0884 42.6929C55.611 42.6929 59.2776 46.3593 59.2776 50.882C59.2776 55.4047 55.611 59.0712 51.0884 59.0712C46.5657 59.0712 42.8992 55.4047 42.8992 50.882C42.8992 46.3593 46.5657 42.6929 51.0884 42.6929ZM51.0884 68.6935V59.6854M58.4587 46.7874L66.5723 42.2834M35.6045 59.8901L43.4354 55.4379M35.6045 42.2834L43.7182 46.7874M66.5723 59.8901L58.7414 55.4379" stroke="#707070" stroke-width="4" stroke-linecap="round" stroke-linejoin="round"/>
</g>
</svg>
