<svg width="102" height="102" viewBox="0 0 102 102" fill="none" xmlns="http://www.w3.org/2000/svg">
<g id="tow-truck">
<path id="Path 13398" d="M82.3486 47.0031C81.0756 45.5597 80.3014 43.6653 80.3014 41.5894V35.0381C80.3014 32.9619 81.0751 31.0671 82.3486 29.6238V26.8489H76.2068C71.6841 26.8489 68.0177 30.5154 68.0177 35.0381V41.5894C68.0177 46.112 71.6841 49.7786 76.2068 49.7786H82.3486V47.0031Z" fill="#CEE1F2"/>
<path id="Path 13399" d="M82.1441 26.8489H76.207C71.6843 26.8489 68.0178 30.5154 68.0178 35.0381V41.5894C68.0178 46.1121 71.6843 49.7786 76.207 49.7786H90.9475C95.4702 49.7786 99.1367 53.4451 99.1367 57.9678V76.1892C99.1367 84.3299 92.5372 90.9293 84.3966 90.9293C84.3966 77.3611 73.3973 66.3617 59.829 66.3617H2.50427M99.1367 35.857V30.9435C99.1367 19.6367 89.9705 10.4705 78.6637 10.4705H63.9232C57.1391 10.4705 51.6394 15.9702 51.6394 22.7543V49.9834V37.0854L27.2477 9.41967C23.3613 5.01163 17.7679 2.48608 11.8911 2.48608H2.50427M10.6935 8.42323V2.69081" stroke="#1DC1DD" stroke-width="4" stroke-linecap="round" stroke-linejoin="round"/>
<path id="Path 13400" d="M2.50427 41.7943C2.50427 46.5092 6.48893 50.2934 11.2743 49.9634C15.3124 49.685 18.584 46.4134 18.8626 42.3751C19.096 38.9903 17.271 36.0062 14.5143 34.5493C12.1954 33.3238 10.6935 30.9709 10.6935 28.3478V23.7781M35.4657 90.7246H21.9536M18.8827 90.9294C18.8827 95.4521 15.2161 99.1186 10.6935 99.1186C6.17078 99.1186 2.50427 95.4521 2.50427 90.9294C2.50427 86.4066 6.17078 82.7403 10.6935 82.7403C15.2161 82.7403 18.8827 86.4066 18.8827 90.9294ZM59.829 82.7403C55.3063 82.7403 51.6398 86.4066 51.6398 90.9294C51.6398 95.4521 55.3063 99.1186 59.829 99.1186C64.3517 99.1186 68.0182 95.4521 68.0182 90.9294C68.0182 86.4066 64.3517 82.7403 59.829 82.7403Z" stroke="#707070" stroke-width="4" stroke-linecap="round" stroke-linejoin="round"/>
</g>
</svg>
